<svg width="512" height="512" xmlns="http://www.w3.org/2000/svg">

 <g>
  <title>background</title>
  <rect fill="none" id="canvas_background" height="402" width="582" y="-1" x="-1"/>
 </g>
 <g>
  <title>Layer 1</title>
  <path id="svg_2" d="m407.847,312.196c0.111,-3.131 -0.1,-6.244 -0.618,-9.321l1.095,-1.095c23.855,-23.856 23.855,-62.674 -0.001,-86.53l-36.966,-36.965c-5.478,-5.478 -12.761,-8.493 -20.508,-8.493s-15.03,3.016 -20.508,8.493c-5.479,5.479 -8.495,12.762 -8.495,20.51c0,7.746 3.017,15.03 8.495,20.509l36.965,36.964c1.239,1.239 1.239,3.257 0.001,4.496l-3.415,3.414c-1.366,-0.073 -2.737,-0.086 -4.104,-0.04l-58.913,-58.913l79.37,-79.368c12.368,-12.373 12.368,-32.503 -0.001,-44.875c-5.993,-5.993 -13.962,-9.294 -22.438,-9.294c-8.475,0 -16.443,3.301 -22.438,9.294l-79.368,79.369l-79.369,-79.369c-5.993,-5.993 -13.962,-9.293 -22.437,-9.293c-8.476,0 -16.444,3.3 -22.438,9.294c-12.369,12.371 -12.369,32.501 0,44.875l79.368,79.368l-58.913,58.912c-1.367,-0.046 -2.737,-0.033 -4.104,0.04l-3.413,-3.413c-1.239,-1.24 -1.239,-3.258 0.001,-4.497l36.964,-36.964c5.479,-5.479 8.495,-12.763 8.495,-20.509c0,-7.748 -3.017,-15.031 -8.495,-20.51c-5.478,-5.478 -12.761,-8.493 -20.508,-8.493s-15.03,3.016 -20.509,8.493l-36.965,36.965c-23.856,23.856 -23.856,62.674 -0.001,86.53l1.095,1.095c-0.519,3.076 -0.729,6.188 -0.617,9.321l-80.605,80.604c-1.688,1.688 -2.636,3.978 -2.636,6.364s0.948,4.676 2.636,6.364l32.147,32.146c1.758,1.757 4.061,2.636 6.364,2.636s4.606,-0.879 6.364,-2.636l80.626,-80.628c0.53,0.019 1.062,0.054 1.59,0.054c0,0 0,0 0.001,0c2.592,0 5.169,-0.222 7.71,-0.647l1.094,1.094c11.539,11.539 26.903,17.895 43.263,17.896c0.002,0 0.004,0 0.006,0c16.355,0 31.72,-6.355 43.261,-17.896l10.025,-10.026l10.025,10.025c11.541,11.541 26.906,17.896 43.266,17.896c16.357,0 31.724,-6.356 43.263,-17.896l1.094,-1.094c2.541,0.426 5.119,0.647 7.711,0.647l0.001,0c0.528,0 1.06,-0.035 1.59,-0.054l80.626,80.628c1.758,1.757 4.061,2.636 6.364,2.636c2.303,0 4.606,-0.879 6.364,-2.636l32.147,-32.146c1.688,-1.688 2.636,-3.978 2.636,-6.364s-0.948,-4.676 -2.636,-6.364l-80.604,-80.603zm-29.868,21.588c-3.76,2.704 -8.105,4.434 -12.781,5.062c-0.001,0 -0.001,0 -0.002,0c-1.268,0.17 -2.559,0.256 -3.836,0.256c-2.732,0 -5.436,-0.387 -8.038,-1.15c-4.544,-1.333 -8.729,-3.82 -12.101,-7.192c-0.536,-0.536 -1.048,-1.09 -1.536,-1.66c-3.414,-3.993 -5.634,-8.804 -6.457,-14.038c0,-0.001 -0.001,-0.002 -0.001,-0.003c-0.431,-2.746 -0.462,-5.53 -0.093,-8.275c0.837,-6.233 3.634,-11.883 8.086,-16.337c1.114,-1.113 2.302,-2.123 3.556,-3.024c3.76,-2.705 8.106,-4.435 12.781,-5.063l0.001,0c1.259,-0.169 2.542,-0.255 3.813,-0.255c1.49,0 2.993,0.118 4.466,0.35c5.981,0.94 11.409,3.704 15.697,7.992c0.843,0.843 1.631,1.736 2.358,2.674c2.185,2.813 3.835,6.019 4.835,9.429c0,0.002 0.001,0.003 0.002,0.005c1.114,3.803 1.423,7.907 0.893,11.868c-0.838,6.235 -3.635,11.885 -8.09,16.339c-1.114,1.111 -2.302,2.121 -3.553,3.022zm-95.04,-54.218c-5.468,-5.468 -12.741,-8.479 -20.48,-8.479c-2.184,0 -4.344,0.261 -6.459,0.743c-2.115,-0.482 -4.275,-0.743 -6.46,-0.743c-7.738,0 -15.012,3.011 -20.479,8.479c-5.709,5.708 -8.704,13.413 -8.469,21.328l-15.637,15.637c-0.805,0.805 -1.753,0.925 -2.246,0.925c-0.494,0 -1.442,-0.12 -2.249,-0.927l-3.412,-3.412c0.074,-1.368 0.086,-2.738 0.04,-4.106l58.912,-58.91l58.911,58.91c-0.046,1.368 -0.034,2.738 0.04,4.106l-3.414,3.414c-0.805,0.805 -1.753,0.925 -2.247,0.925c-0.493,0 -1.441,-0.12 -2.247,-0.927l-15.636,-15.634c0.236,-7.916 -2.759,-15.62 -8.468,-21.329zm-112.159,51.193c-0.422,0.422 -0.856,0.829 -1.302,1.223c-3.123,2.753 -6.824,4.804 -10.802,5.97c-3.817,1.121 -7.898,1.429 -11.874,0.895c-6.234,-0.837 -11.884,-3.633 -16.336,-8.087c-0.557,-0.557 -1.088,-1.132 -1.592,-1.725c-3.53,-4.15 -5.763,-9.157 -6.496,-14.613c0,-0.002 -0.001,-0.003 -0.001,-0.004c-0.528,-3.965 -0.22,-8.069 0.896,-11.869c1.334,-4.547 3.821,-8.731 7.192,-12.103c0.536,-0.536 1.09,-1.048 1.661,-1.536c3.993,-3.414 8.804,-5.633 14.038,-6.456c1.472,-0.231 2.974,-0.35 4.465,-0.35c1.271,0 2.555,0.086 3.813,0.255c6.232,0.837 11.882,3.633 16.337,8.086c1.113,1.113 2.123,2.303 3.024,3.556c2.704,3.761 4.435,8.107 5.063,12.784c0.369,2.745 0.338,5.531 -0.094,8.276c-0.941,5.982 -3.705,11.411 -7.992,15.698zm172.289,-124.184c-4.291,-4.29 -4.291,-11.271 0,-15.562c2.077,-2.078 4.84,-3.222 7.779,-3.222s5.703,1.144 7.78,3.222l36.965,36.965c15.329,15.328 16.703,39.407 4.124,56.305c-0.469,-0.683 -0.962,-1.35 -1.467,-2.008c-0.147,-0.19 -0.299,-0.377 -0.448,-0.565c-0.407,-0.513 -0.824,-1.018 -1.253,-1.514c-0.167,-0.193 -0.333,-0.388 -0.504,-0.578c-0.579,-0.648 -1.17,-1.286 -1.785,-1.901c-0.427,-0.427 -0.861,-0.844 -1.302,-1.252c-0.134,-0.124 -0.271,-0.241 -0.406,-0.364c-0.31,-0.28 -0.62,-0.561 -0.936,-0.832c-0.168,-0.144 -0.34,-0.281 -0.51,-0.422c-0.289,-0.241 -0.577,-0.483 -0.871,-0.717c-0.187,-0.147 -0.376,-0.289 -0.564,-0.434c-0.283,-0.218 -0.565,-0.436 -0.854,-0.646c-0.199,-0.146 -0.402,-0.287 -0.604,-0.43c-0.282,-0.2 -0.564,-0.4 -0.851,-0.594c-0.21,-0.142 -0.423,-0.279 -0.636,-0.418c-0.282,-0.184 -0.565,-0.367 -0.852,-0.545c-0.22,-0.137 -0.442,-0.27 -0.665,-0.402c-0.284,-0.17 -0.569,-0.338 -0.857,-0.502c-0.229,-0.13 -0.458,-0.257 -0.689,-0.383c-0.166,-0.091 -0.33,-0.187 -0.497,-0.275c4.941,-8.147 3.896,-18.932 -3.135,-25.962l-36.962,-36.964zm5.027,-112.865c2.595,-2.594 6.043,-4.022 9.71,-4.022c3.668,0 7.116,1.429 9.709,4.021c5.353,5.354 5.353,14.066 0,19.42l-79.368,79.368l-19.418,-19.418l79.367,-79.369zm-203.611,0c2.593,-2.594 6.041,-4.021 9.709,-4.021c3.667,0 7.115,1.428 9.709,4.021l85.724,85.724c0.003,0.003 0.006,0.007 0.009,0.01l32.146,32.146c0.003,0.003 0.007,0.006 0.01,0.009l57.861,57.861c-0.107,0.057 -0.211,0.118 -0.318,0.176c-0.222,0.12 -0.441,0.243 -0.661,0.366c-0.308,0.172 -0.613,0.347 -0.917,0.525c-0.22,0.131 -0.438,0.263 -0.656,0.396c-0.299,0.184 -0.596,0.37 -0.89,0.561c-0.216,0.139 -0.431,0.279 -0.644,0.422c-0.293,0.196 -0.584,0.398 -0.874,0.602c-0.207,0.146 -0.415,0.291 -0.62,0.441c-0.292,0.213 -0.58,0.432 -0.868,0.651c-0.195,0.149 -0.393,0.298 -0.586,0.451c-0.298,0.234 -0.59,0.477 -0.882,0.72c-0.178,0.147 -0.358,0.292 -0.534,0.443c-0.321,0.274 -0.636,0.558 -0.95,0.842c-0.141,0.127 -0.284,0.25 -0.424,0.379c-0.452,0.418 -0.898,0.846 -1.336,1.283c-0.437,0.437 -0.863,0.882 -1.28,1.332c-0.137,0.148 -0.267,0.3 -0.401,0.449c-0.276,0.307 -0.553,0.613 -0.82,0.926c-0.155,0.182 -0.305,0.367 -0.457,0.551c-0.237,0.286 -0.475,0.572 -0.704,0.863c-0.158,0.199 -0.311,0.401 -0.465,0.604c-0.215,0.281 -0.429,0.563 -0.636,0.848c-0.155,0.213 -0.307,0.428 -0.457,0.643c-0.197,0.281 -0.393,0.563 -0.583,0.847c-0.149,0.223 -0.296,0.447 -0.44,0.672c-0.183,0.283 -0.362,0.567 -0.538,0.854c-0.142,0.23 -0.282,0.463 -0.42,0.695c-0.169,0.286 -0.333,0.574 -0.495,0.863c-0.135,0.239 -0.269,0.479 -0.398,0.721c-0.053,0.098 -0.109,0.194 -0.162,0.293l-73.943,-73.943l-16.072,-16.073c-0.003,-0.003 -0.007,-0.006 -0.011,-0.01l-85.722,-85.722c-5.356,-5.356 -5.356,-14.068 -0.004,-19.421zm79.369,124.244l19.419,19.418l-51.507,51.506c-0.053,-0.1 -0.109,-0.196 -0.163,-0.295c-0.131,-0.243 -0.266,-0.483 -0.4,-0.725c-0.159,-0.284 -0.321,-0.566 -0.487,-0.848c-0.143,-0.242 -0.287,-0.481 -0.434,-0.721c-0.17,-0.275 -0.342,-0.548 -0.518,-0.82c-0.152,-0.236 -0.307,-0.473 -0.463,-0.707c-0.182,-0.271 -0.367,-0.538 -0.555,-0.805c-0.16,-0.229 -0.32,-0.457 -0.485,-0.684c-0.196,-0.27 -0.399,-0.535 -0.602,-0.801c-0.165,-0.217 -0.329,-0.434 -0.498,-0.647c-0.218,-0.275 -0.442,-0.546 -0.666,-0.817c-0.164,-0.197 -0.325,-0.397 -0.493,-0.594c-0.257,-0.3 -0.523,-0.595 -0.788,-0.89c-0.144,-0.159 -0.283,-0.321 -0.429,-0.479c-0.417,-0.449 -0.842,-0.894 -1.278,-1.33c-0.436,-0.436 -0.88,-0.86 -1.329,-1.276c-0.157,-0.146 -0.319,-0.284 -0.479,-0.428c-0.297,-0.268 -0.593,-0.534 -0.896,-0.793c-0.188,-0.162 -0.382,-0.317 -0.572,-0.476c-0.279,-0.231 -0.558,-0.463 -0.841,-0.687c-0.205,-0.162 -0.414,-0.318 -0.621,-0.478c-0.275,-0.21 -0.552,-0.42 -0.831,-0.623c-0.217,-0.158 -0.435,-0.311 -0.653,-0.465c-0.278,-0.195 -0.558,-0.389 -0.84,-0.578c-0.223,-0.148 -0.446,-0.295 -0.671,-0.439c-0.286,-0.185 -0.572,-0.365 -0.861,-0.543c-0.228,-0.14 -0.455,-0.277 -0.685,-0.412c-0.292,-0.173 -0.586,-0.341 -0.882,-0.507c-0.231,-0.13 -0.463,-0.259 -0.696,-0.385c-0.102,-0.055 -0.201,-0.114 -0.304,-0.168l51.508,-51.503zm-107.448,10.025l36.964,-36.965c2.078,-2.078 4.842,-3.222 7.781,-3.222s5.702,1.144 7.779,3.222c4.291,4.29 4.291,11.271 0,15.562l-36.963,36.964c-7.031,7.029 -8.076,17.814 -3.136,25.962c-0.16,0.085 -0.317,0.178 -0.477,0.264c-0.243,0.133 -0.485,0.267 -0.727,0.403c-0.271,0.155 -0.541,0.314 -0.811,0.476c-0.238,0.142 -0.477,0.284 -0.713,0.431c-0.266,0.165 -0.529,0.337 -0.792,0.508c-0.232,0.151 -0.466,0.301 -0.695,0.456c-0.264,0.179 -0.524,0.363 -0.785,0.548c-0.223,0.157 -0.446,0.313 -0.665,0.474c-0.266,0.194 -0.526,0.396 -0.788,0.597c-0.209,0.16 -0.42,0.318 -0.627,0.482c-0.272,0.217 -0.54,0.44 -0.808,0.663c-0.189,0.158 -0.382,0.313 -0.569,0.473c-0.296,0.254 -0.586,0.518 -0.876,0.779c-0.154,0.139 -0.311,0.273 -0.463,0.414c-0.439,0.407 -0.873,0.823 -1.299,1.249c-0.616,0.616 -1.208,1.255 -1.787,1.903c-0.169,0.188 -0.333,0.381 -0.499,0.573c-0.431,0.499 -0.851,1.006 -1.26,1.522c-0.147,0.186 -0.298,0.369 -0.442,0.558c-0.505,0.658 -0.998,1.326 -1.468,2.01c-12.578,-16.899 -11.203,-40.978 4.126,-56.306zm-54.345,190.605l-19.42,-19.419l7.132,-7.132l19.42,19.419l-7.132,7.132zm19.86,-19.86l-19.42,-19.419l46.979,-46.979c0.06,0.112 0.124,0.221 0.184,0.333c0.114,0.211 0.231,0.421 0.349,0.631c0.178,0.316 0.358,0.632 0.543,0.944c0.126,0.213 0.254,0.425 0.383,0.636c0.188,0.306 0.38,0.609 0.574,0.911c0.135,0.209 0.271,0.417 0.409,0.623c0.201,0.302 0.408,0.6 0.616,0.896c0.142,0.201 0.282,0.401 0.427,0.601c0.218,0.299 0.442,0.595 0.668,0.89c0.145,0.189 0.288,0.379 0.436,0.566c0.24,0.305 0.488,0.604 0.736,0.902c0.143,0.172 0.282,0.346 0.428,0.515c0.28,0.327 0.568,0.648 0.858,0.97c0.122,0.135 0.24,0.272 0.364,0.406c0.419,0.452 0.846,0.898 1.284,1.337c0.437,0.437 0.882,0.863 1.332,1.28c0.147,0.136 0.299,0.266 0.446,0.399c0.308,0.277 0.614,0.554 0.928,0.822c0.181,0.154 0.365,0.303 0.548,0.454c0.287,0.239 0.575,0.478 0.867,0.709c0.197,0.155 0.397,0.307 0.597,0.459c0.285,0.217 0.569,0.434 0.858,0.645c0.208,0.15 0.418,0.298 0.628,0.445c0.286,0.201 0.573,0.4 0.864,0.596c0.217,0.146 0.437,0.289 0.657,0.431c0.286,0.185 0.575,0.367 0.866,0.546c0.229,0.141 0.458,0.279 0.688,0.415c0.286,0.169 0.575,0.334 0.865,0.497c0.24,0.135 0.48,0.269 0.723,0.398c0.098,0.053 0.193,0.11 0.292,0.162l-46.977,46.979zm151.325,-53.906c-8.142,8.142 -18.983,12.626 -30.532,12.625c-0.001,0 -0.003,0 -0.004,0c-9.422,-0.001 -18.373,-2.982 -25.771,-8.499c0.68,-0.467 1.344,-0.957 1.999,-1.46c0.198,-0.152 0.392,-0.311 0.588,-0.466c0.505,-0.401 1.003,-0.813 1.491,-1.234c0.198,-0.171 0.397,-0.341 0.593,-0.516c0.646,-0.578 1.283,-1.167 1.897,-1.781c0.426,-0.426 0.841,-0.858 1.248,-1.298c0.144,-0.154 0.279,-0.313 0.421,-0.47c0.26,-0.288 0.521,-0.576 0.772,-0.869c0.159,-0.186 0.312,-0.375 0.467,-0.563c0.227,-0.271 0.453,-0.542 0.672,-0.817c0.158,-0.2 0.311,-0.403 0.466,-0.605c0.207,-0.27 0.414,-0.538 0.615,-0.812c0.153,-0.21 0.302,-0.423 0.452,-0.635c0.192,-0.272 0.386,-0.545 0.572,-0.82c0.146,-0.217 0.287,-0.436 0.429,-0.654c0.182,-0.277 0.362,-0.557 0.537,-0.838c0.138,-0.221 0.271,-0.444 0.403,-0.668c0.171,-0.284 0.34,-0.569 0.503,-0.857c0.129,-0.227 0.254,-0.455 0.379,-0.684c0.092,-0.167 0.188,-0.332 0.278,-0.501c3.276,1.994 7.049,3.06 10.987,3.06c5.661,0 10.98,-2.202 14.976,-6.198l10.07,-10.07c0.418,0.478 0.854,0.942 1.305,1.395l14.211,14.212l-10.024,10.023zm76.045,12.625c-11.551,0 -22.396,-4.483 -30.537,-12.625l-16.39,-16.39l-20.575,-20.575c-0.376,-0.376 -0.723,-0.776 -1.037,-1.199c-0.945,-1.268 -1.605,-2.73 -1.936,-4.3l0,-0.001c-0.771,-3.667 0.34,-7.427 2.973,-10.059c2.067,-2.068 4.82,-3.207 7.751,-3.207c1.22,0 2.422,0.197 3.569,0.587c1.628,0.552 3.054,1.433 4.24,2.62l18.277,18.276c0.002,0.002 0.004,0.003 0.005,0.004l18.682,18.681c3.996,3.998 9.315,6.2 14.977,6.2c3.938,0 7.711,-1.065 10.987,-3.06c0.089,0.167 0.185,0.33 0.275,0.496c0.127,0.233 0.255,0.466 0.386,0.696c0.159,0.279 0.323,0.557 0.488,0.832c0.139,0.232 0.277,0.465 0.421,0.695c0.169,0.272 0.344,0.541 0.519,0.811c0.147,0.227 0.294,0.454 0.446,0.679c0.182,0.269 0.369,0.532 0.557,0.798c0.154,0.219 0.307,0.438 0.465,0.654c0.197,0.269 0.402,0.533 0.605,0.798c0.158,0.206 0.313,0.413 0.475,0.617c0.219,0.274 0.444,0.544 0.669,0.813c0.156,0.188 0.309,0.379 0.468,0.564c0.256,0.298 0.521,0.59 0.785,0.882c0.137,0.151 0.269,0.306 0.408,0.456c0.407,0.439 0.823,0.873 1.249,1.299c0.617,0.617 1.256,1.209 1.905,1.789c0.188,0.168 0.379,0.331 0.569,0.495c0.5,0.433 1.009,0.853 1.525,1.263c0.187,0.147 0.37,0.297 0.559,0.442c0.658,0.505 1.325,0.998 2.009,1.468c-7.397,5.519 -16.348,8.501 -25.769,8.501zm74.111,-5.864c0.236,-0.127 0.472,-0.259 0.707,-0.391c0.293,-0.164 0.585,-0.331 0.875,-0.502c0.229,-0.136 0.458,-0.274 0.686,-0.414c0.29,-0.178 0.578,-0.359 0.863,-0.544c0.223,-0.144 0.443,-0.287 0.663,-0.435c0.288,-0.193 0.573,-0.391 0.857,-0.591c0.212,-0.148 0.423,-0.297 0.632,-0.449c0.289,-0.21 0.573,-0.427 0.857,-0.644c0.199,-0.152 0.398,-0.303 0.596,-0.458c0.295,-0.233 0.586,-0.474 0.875,-0.715c0.18,-0.149 0.36,-0.295 0.538,-0.446c0.319,-0.273 0.633,-0.556 0.946,-0.839c0.143,-0.128 0.287,-0.253 0.428,-0.383c0.451,-0.418 0.896,-0.845 1.334,-1.282s0.863,-0.882 1.281,-1.333c0.136,-0.147 0.267,-0.299 0.4,-0.448c0.276,-0.306 0.552,-0.611 0.818,-0.924c0.158,-0.184 0.309,-0.371 0.463,-0.557c0.236,-0.284 0.472,-0.568 0.701,-0.858c0.157,-0.199 0.31,-0.401 0.464,-0.604c0.215,-0.281 0.429,-0.563 0.638,-0.85c0.154,-0.212 0.305,-0.426 0.455,-0.64c0.197,-0.281 0.394,-0.563 0.584,-0.849c0.149,-0.223 0.295,-0.446 0.439,-0.671c0.184,-0.283 0.363,-0.569 0.54,-0.856c0.142,-0.229 0.28,-0.46 0.417,-0.691c0.171,-0.289 0.337,-0.58 0.502,-0.873c0.131,-0.234 0.263,-0.47 0.39,-0.706c0.055,-0.102 0.113,-0.2 0.167,-0.302l46.979,46.979l-19.42,19.419l-46.977,-46.979c0.103,-0.051 0.202,-0.109 0.302,-0.164zm66.537,67.005l-7.133,-7.133l19.42,-19.419l7.133,7.133l-19.42,19.419z"/>
  <text stroke="null" transform="matrix(0.8702924251556396,0,0,0.8180980086326598,14.945183131843805,70.09716409258544) " font-weight="bold" xml:space="preserve" text-anchor="start" font-family="Arvo, sans-serif" font-size="26" id="svg_4" y="405.463998" x="137.898933" fill-opacity="null" stroke-opacity="null" stroke-width="0" fill="#000000">RED TEAM ARSENAL</text>
  <ellipse ry="15.681469" rx="16.661561" id="svg_8" cy="312.355273" cx="150.640127" fill-opacity="null" stroke-opacity="null" stroke-width="null" stroke="null" fill="null"/>
  <ellipse ry="15.681469" rx="16.661561" id="svg_9" cy="311.375181" cx="150.640127" fill-opacity="null" stroke-opacity="null" stroke-width="null" stroke="null" fill="null"/>
  <ellipse ry="15.681469" rx="16.661561" id="svg_11" cy="311.375181" cx="361.359868" fill-opacity="null" stroke-opacity="null" stroke-width="null" stroke="null" fill="null"/>
  <line stroke="#ff0000" transform="rotate(46.6368522644043 55.8585395812989,405.9217834472656) " stroke-linecap="null" stroke-linejoin="null" id="svg_12" y2="405.316176" x2="70.73686" y1="406.527326" x1="40.980226" stroke-width="12" fill="none"/>
  <line stroke="#ff0000" transform="rotate(-49.12602233886719 457.1738586425781,404.5790100097656) " stroke-linecap="null" stroke-linejoin="null" id="svg_13" y2="406.122665" x2="472.052161" y1="403.035321" x1="442.295527" stroke-width="12" fill="none"/>
 </g>
</svg>